<?xml version="1.0" encoding="UTF-8"?>
<svg id="Camada_1" data-name="Camada 1" xmlns="http://www.w3.org/2000/svg" version="1.1" viewBox="0 0 517.99 95.7">
  <defs>
    <style>
      .cls-1 {
        fill: #00fea8;
      }

      .cls-2, .cls-3 {
        fill: #ffffff;
      }

      .cls-2, .cls-4 {
        stroke-width: 0px;
      }

      .cls-5 {
        font-family: TechnoRace-Italic, 'Techno Race';
        font-size: 99.82px;
        font-style: italic;
      }

      .cls-6 {
        font-family: Mont-HeavyDEMO, Mont;
        font-size: 33.39px;
        font-weight: 800;
      }

      .cls-6, .cls-4 {
        fill: #fff;
      }

      .cls-3 {
        font-family: MyriadPro-Regular, 'Myriad Pro';
        font-size: 43.04px;
      }

      .cls-7 {
        fill: #ffffff;
      }
    </style>
  </defs>
  <text class="cls-3" transform="translate(-3540.39 -87.48)"><tspan x="0" y="0">star:soft</tspan></text>
  <text class="cls-3" transform="translate(-3540.39 -12.94)"><tspan x="0" y="0">[star&gt;/soft]</tspan></text>
  <text class="cls-6" transform="translate(-3670.88 -229.73)"><tspan x="0" y="0">starsoft</tspan></text>
  <path class="cls-4" d="M-3506.49-153.52l21.06-60.11h12.76l-21.06,60.11h-12.76Z"/>
  <text class="cls-5" transform="translate(-3750.22 274.69)"><tspan class="cls-7" x="0" y="0">s</tspan><tspan class="cls-1" x="48.91" y="0">o</tspan><tspan class="cls-7" x="101.12" y="0">ft</tspan></text>
  <g>
    <path class="cls-2" d="M0,65.35h24.61c0,6.18,4.77,9.19,10.21,9.19,5,0,9.77-2.66,9.77-7.39,0-5.43-6.74-7.01-14.98-9-12.51-3.11-28.49-6.95-28.49-26.66C1.11,14.45,13.64,4.68,34.06,4.68s32.66,10.66,32.66,28.27h-23.92c0-5.48-4.08-8.04-9.02-8.04-4.25,0-8.33,1.84-8.33,5.88,0,4.92,6.53,6.54,14.68,8.59,12.74,3.29,29.41,7.55,29.41,27.32s-14.53,28.73-34.64,28.73C13.7,95.43,0,84.22,0,65.35Z"/>
    <path class="cls-2" d="M124.56,73.16v20.15h-15.83c-14.77,0-23.75-9.03-23.75-23.87v-25.2h-12.23v-5.38l29.92-31.87h4.73v19.53h16.78v17.72h-16.2v21.26c0,4.78,2.89,7.67,7.74,7.67h8.83Z"/>
    <path class="cls-2" d="M205.77,26.45v66.79h-17.79l-1.97-4.72c-5.47,4.43-12.4,6.98-20.15,6.98-20.42,0-35.02-14.9-35.02-35.66s14.6-35.41,35.02-35.41c7.87,0,14.89,2.63,20.41,7.18l2.35-5.16h17.15ZM183.89,59.9c0-8.67-6.33-15.18-14.95-15.18s-14.95,6.51-14.95,15.18,6.33,15.23,14.95,15.23,14.95-6.51,14.95-15.23Z"/>
    <path class="cls-2" d="M263.76,26.2v21.05h-8.93c-8.15,0-11.56,3.57-11.56,12.09v33.96h-23V26.52h15.41l3.59,7.41c4.71-5.45,10.45-7.73,18.4-7.73h6.09Z"/>
    <path class="cls-2" d="M297.98,95.5c-18.2,0-29.27-9.61-29.48-24.09h22.14c0,4.88,3.4,7.13,7.76,7.13,3.36,0,6.55-1.72,6.55-5.17,0-3.85-5.06-4.95-11.47-6.01-10.36-1.68-24.08-4.8-24.08-21,0-13.39,11.41-22.03,28.52-22.03s28.03,9.05,28.29,22.58h-21.54c0-4.26-2.87-6.25-7.03-6.25-3.69,0-6.17,1.83-6.17,4.92,0,3.8,5.11,4.68,11.45,5.82,10.55,1.87,24.58,4.07,24.58,21,0,13.96-11.78,23.09-29.53,23.09h0Z"/>
    <path class="cls-2" d="M407.32,46.65c3.07,11.22,1.89,21.43-3.95,30.99-8.92,14.6-26.87,21.46-42.81,16.4-1.41-.45-2.8-1.02-4.09-1.73-4.82-2.65-6.7-6.97-3.97-11.72,2.46-4.29,5.63-8.5,9.41-11.64,11.41-9.51,25.06-15.01,38.82-20.16,2.03-.76,4.12-1.35,6.59-2.15Z"/>
    <path class="cls-2" d="M342.43,63.88c5.48-.31,10.25-2.65,15.04-5.12.88-.45,1.76-.9,2.63-1.35,7.95-4.99,16.31-9.29,25.13-12.65,6.14-2.34,12.43-4.17,18.8-5.64-.49-.82-.97-1.66-1.51-2.45-9.14-13.54-26.11-19.7-41.8-15.19-15.16,4.35-27.15,19.33-27.17,33.95,0,5.94,2.93,8.78,8.87,8.45Z"/>
    <g>
      <path class="cls-2" d="M450.06,33.2c4.45-.3,8.91-.53,13.38-.72v-4.86h-15.73v-4.54c0-3.41,2.04-5.43,5.45-5.43h10.16V0h-16.06c-14.17,0-21.52,7.83-21.52,21.22v6.39h-11.38l.03,9.45c11.79-2.02,23.78-3.05,35.67-3.86Z"/>
      <path class="cls-2" d="M414.4,44.51v1.17h11.05v47.62h23.01v-47.62h14.98v-9.28c-18.52,1.72-34.73,4.53-49.03,8.11Z"/>
    </g>
    <g>
      <path class="cls-2" d="M508.94,32.7c2.89.16,5.8.35,8.68.66v-6.84h-16.78V6.99h-4.73l-23.64,25.18c12.16-.3,24.34-.16,36.47.53Z"/>
      <path class="cls-2" d="M501.42,65.49v-21.26h16.2v-9.61c-17.78-.35-33.94.14-48.68,1.31l-2.75,2.93v5.38h12.23v25.2c0,14.84,8.98,23.87,23.75,23.87h15.83v-20.15h-8.83c-4.85,0-7.74-2.89-7.74-7.67Z"/>
    </g>
  </g>
</svg>